<svg xmlns="http://www.w3.org/2000/svg" xmlns:xlink="http://www.w3.org/1999/xlink" width="600" zoomAndPan="magnify" viewBox="0 0 450 225" height="300" preserveAspectRatio="xMidYMid meet" version="1.0"><defs><g/><clipPath id="ae1ee07884"><rect x="0" width="285" y="0" height="46"/></clipPath><clipPath id="746cf6c04b"><rect x="0" width="445" y="0" height="213"/></clipPath></defs><rect x="-45" width="540" fill="#ffffff" y="-22.5" height="270" fill-opacity="1"/><rect x="-45" width="540" fill="#ffffff" y="-22.5" height="270" fill-opacity="1"/><g transform="matrix(1, 0, 0, 1, 5, 12)"><g clip-path="url(#746cf6c04b)"><g fill="#0f606b" fill-opacity="1"><g transform="translate(1.136246, 156.422143)"><g><path d="M 45.46875 30.140625 L 37.640625 18.296875 C 37.984375 17.828125 38.445312 17.242188 39.03125 16.546875 C 39.613281 15.847656 40.832031 14.539062 42.6875 12.625 C 44.539062 10.707031 46.335938 9.023438 48.078125 7.578125 C 49.828125 6.128906 51.863281 4.820312 54.1875 3.65625 C 56.507812 2.5 58.660156 1.921875 60.640625 1.921875 L 60.640625 1.21875 C 43.679688 -2.03125 30 -10.390625 19.59375 -23.859375 C 9.195312 -37.335938 4 -53.367188 4 -71.953125 C 4 -92.867188 10.96875 -110.5 24.90625 -124.84375 C 38.851562 -139.1875 55.757812 -146.359375 75.625 -146.359375 C 95.601562 -146.359375 112.5 -139.1875 126.3125 -124.84375 C 140.132812 -110.5 147.046875 -92.867188 147.046875 -71.953125 C 147.046875 -54.878906 142.457031 -39.835938 133.28125 -26.828125 C 124.113281 -13.816406 112.035156 -5.046875 97.046875 -0.515625 L 97.046875 0.171875 C 97.742188 0.171875 100.820312 0.722656 106.28125 1.828125 C 111.738281 2.929688 116.09375 3.484375 119.34375 3.484375 C 123.757812 3.484375 127.769531 2.695312 131.375 1.125 C 134.976562 -0.4375 137.472656 -1.972656 138.859375 -3.484375 L 140.953125 -5.921875 L 151.234375 16.203125 C 151.003906 16.785156 150.625 17.507812 150.09375 18.375 C 149.570312 19.25 148.382812 20.789062 146.53125 23 C 144.675781 25.207031 142.613281 27.179688 140.34375 28.921875 C 138.082031 30.660156 135.0625 32.226562 131.28125 33.625 C 127.507812 35.019531 123.472656 35.71875 119.171875 35.71875 C 112.085938 35.71875 103.429688 33.453125 93.203125 28.921875 C 82.984375 24.390625 74.160156 22.125 66.734375 22.125 C 62.671875 22.125 58.863281 22.789062 55.3125 24.125 C 51.769531 25.46875 49.242188 26.832031 47.734375 28.21875 Z M 39.375 -71.953125 C 39.375 -66.378906 40.007812 -61.179688 41.28125 -56.359375 C 42.5625 -51.546875 44.566406 -47.160156 47.296875 -43.203125 C 50.035156 -39.253906 53.8125 -36.144531 58.625 -33.875 C 63.445312 -31.613281 69.113281 -30.484375 75.625 -30.484375 C 87.8125 -30.484375 96.867188 -34.429688 102.796875 -42.328125 C 108.722656 -50.234375 111.6875 -60.109375 111.6875 -71.953125 C 111.6875 -83.691406 108.664062 -93.535156 102.625 -101.484375 C 96.582031 -109.441406 87.582031 -113.421875 75.625 -113.421875 C 63.769531 -113.421875 54.765625 -109.410156 48.609375 -101.390625 C 42.453125 -93.378906 39.375 -83.566406 39.375 -71.953125 Z M 39.375 -71.953125 "/></g></g></g><g fill="#424e59" fill-opacity="1"><g transform="translate(135.825303, 156.422143)"><g><path d="M 112.5625 -89.375 L 70.046875 -46.6875 L 116.734375 0 L 77.015625 0 L 41.296875 -35.71875 L 41.296875 0 L 10.453125 0 L 10.453125 -149.84375 L 41.296875 -149.84375 L 41.296875 -58.1875 L 72.484375 -89.375 Z M 112.5625 -89.375 "/></g></g></g><g fill="#424e59" fill-opacity="1"><g transform="translate(231.980462, 156.422143)"><g><path d="M 100.875 -40.421875 L 36.0625 -40.421875 C 36.0625 -34.148438 38.09375 -29.503906 42.15625 -26.484375 C 46.226562 -23.460938 50.644531 -21.953125 55.40625 -21.953125 C 60.40625 -21.953125 64.351562 -22.617188 67.25 -23.953125 C 70.15625 -25.285156 73.46875 -27.929688 77.1875 -31.890625 L 99.484375 -20.734375 C 90.191406 -5.171875 74.742188 2.609375 53.140625 2.609375 C 39.671875 2.609375 28.113281 -2.003906 18.46875 -11.234375 C 8.820312 -20.472656 4 -31.597656 4 -44.609375 C 4 -57.617188 8.820312 -68.769531 18.46875 -78.0625 C 28.113281 -87.351562 39.671875 -92 53.140625 -92 C 67.304688 -92 78.832031 -87.898438 87.71875 -79.703125 C 96.613281 -71.515625 101.0625 -59.816406 101.0625 -44.609375 C 101.0625 -42.515625 101 -41.117188 100.875 -40.421875 Z M 36.9375 -57.5 L 70.90625 -57.5 C 70.21875 -62.144531 68.390625 -65.710938 65.421875 -68.203125 C 62.460938 -70.703125 58.660156 -71.953125 54.015625 -71.953125 C 48.898438 -71.953125 44.832031 -70.613281 41.8125 -67.9375 C 38.789062 -65.269531 37.164062 -61.789062 36.9375 -57.5 Z M 36.9375 -57.5 "/></g></g></g><g fill="#424e59" fill-opacity="1"><g transform="translate(320.644901, 156.422143)"><g><path d="M 10.453125 0 L 10.453125 -89.375 L 41.296875 -89.375 L 41.296875 -79.96875 L 41.640625 -79.96875 C 49.660156 -87.988281 58.195312 -92 67.25 -92 C 71.664062 -92 76.050781 -91.414062 80.40625 -90.25 C 84.757812 -89.09375 88.941406 -87.289062 92.953125 -84.84375 C 96.960938 -82.40625 100.210938 -78.953125 102.703125 -74.484375 C 105.203125 -70.015625 106.453125 -64.816406 106.453125 -58.890625 L 106.453125 0 L 75.625 0 L 75.625 -50.53125 C 75.625 -55.175781 74.140625 -59.238281 71.171875 -62.71875 C 68.210938 -66.207031 64.351562 -67.953125 59.59375 -67.953125 C 54.945312 -67.953125 50.734375 -66.148438 46.953125 -62.546875 C 43.179688 -58.953125 41.296875 -54.945312 41.296875 -50.53125 L 41.296875 0 Z M 10.453125 0 "/></g></g></g><g transform="matrix(1, 0, 0, 1, 160, 156)"><g clip-path="url(#ae1ee07884)"><g fill="#424e59" fill-opacity="1"><g transform="translate(0.855068, 36.236669)"><g><path d="M 18.328125 -3.046875 C 18.691406 -2.648438 18.875 -2.222656 18.875 -1.765625 C 18.875 -1.273438 18.679688 -0.863281 18.296875 -0.53125 C 17.921875 -0.195312 17.523438 -0.03125 17.109375 -0.03125 C 16.566406 -0.03125 16.140625 -0.226562 15.828125 -0.625 L 8.59375 -8.296875 L 6.390625 -6.3125 L 6.390625 -1.765625 C 6.390625 -1.273438 6.222656 -0.859375 5.890625 -0.515625 C 5.554688 -0.171875 5.144531 0 4.65625 0 C 4.144531 0 3.722656 -0.171875 3.390625 -0.515625 C 3.066406 -0.859375 2.90625 -1.273438 2.90625 -1.765625 L 2.90625 -25.40625 C 2.90625 -25.894531 3.066406 -26.3125 3.390625 -26.65625 C 3.722656 -27 4.144531 -27.171875 4.65625 -27.171875 C 5.144531 -27.171875 5.554688 -27 5.890625 -26.65625 C 6.222656 -26.3125 6.390625 -25.894531 6.390625 -25.40625 L 6.390625 -10.5 L 15.390625 -18.765625 C 15.804688 -19.128906 16.234375 -19.3125 16.671875 -19.3125 C 17.085938 -19.3125 17.46875 -19.132812 17.8125 -18.78125 C 18.15625 -18.425781 18.328125 -18.050781 18.328125 -17.65625 C 18.328125 -17.164062 18.09375 -16.726562 17.625 -16.34375 L 11.265625 -10.6875 Z M 18.328125 -3.046875 "/></g></g></g><g fill="#424e59" fill-opacity="1"><g transform="translate(45.174765, 36.236669)"><g><path d="M 5.90625 -1.765625 C 5.90625 -1.273438 5.738281 -0.859375 5.40625 -0.515625 C 5.082031 -0.171875 4.664062 0 4.15625 0 C 3.664062 0 3.253906 -0.171875 2.921875 -0.515625 C 2.585938 -0.859375 2.421875 -1.273438 2.421875 -1.765625 L 2.421875 -17.65625 C 2.421875 -18.144531 2.585938 -18.5625 2.921875 -18.90625 C 3.253906 -19.25 3.664062 -19.421875 4.15625 -19.421875 C 4.664062 -19.421875 5.082031 -19.25 5.40625 -18.90625 C 5.738281 -18.5625 5.90625 -18.144531 5.90625 -17.65625 Z M 4.15625 -21.84375 C 3.4375 -21.84375 2.925781 -21.972656 2.625 -22.234375 C 2.320312 -22.492188 2.171875 -22.90625 2.171875 -23.46875 L 2.171875 -24.046875 C 2.171875 -24.640625 2.332031 -25.054688 2.65625 -25.296875 C 2.988281 -25.546875 3.5 -25.671875 4.1875 -25.671875 C 4.875 -25.671875 5.367188 -25.539062 5.671875 -25.28125 C 5.972656 -25.019531 6.125 -24.609375 6.125 -24.046875 L 6.125 -23.46875 C 6.125 -22.875 5.960938 -22.453125 5.640625 -22.203125 C 5.328125 -21.960938 4.832031 -21.84375 4.15625 -21.84375 Z M 4.15625 -21.84375 "/></g></g></g><g fill="#424e59" fill-opacity="1"><g transform="translate(77.45446, 36.236669)"><g><path d="M 7.828125 -15.828125 L 7.828125 -4.890625 C 7.828125 -3.660156 8.375 -3.046875 9.46875 -3.046875 C 9.644531 -3.046875 9.878906 -3.085938 10.171875 -3.171875 C 10.460938 -3.265625 10.695312 -3.3125 10.875 -3.3125 C 11.1875 -3.3125 11.453125 -3.175781 11.671875 -2.90625 C 11.890625 -2.632812 12 -2.289062 12 -1.875 C 12 -1.363281 11.707031 -0.921875 11.125 -0.546875 C 10.539062 -0.179688 9.878906 0 9.140625 0 C 8.335938 0 7.597656 -0.0820312 6.921875 -0.25 C 6.242188 -0.425781 5.640625 -0.863281 5.109375 -1.5625 C 4.585938 -2.257812 4.328125 -3.316406 4.328125 -4.734375 L 4.328125 -15.828125 L 2.203125 -15.828125 C 1.734375 -15.828125 1.347656 -15.976562 1.046875 -16.28125 C 0.742188 -16.59375 0.59375 -16.976562 0.59375 -17.4375 C 0.59375 -17.90625 0.742188 -18.285156 1.046875 -18.578125 C 1.347656 -18.867188 1.734375 -19.015625 2.203125 -19.015625 L 4.328125 -19.015625 L 4.328125 -22.109375 C 4.328125 -22.597656 4.492188 -23.015625 4.828125 -23.359375 C 5.160156 -23.703125 5.582031 -23.875 6.09375 -23.875 C 6.582031 -23.875 6.992188 -23.703125 7.328125 -23.359375 C 7.660156 -23.015625 7.828125 -22.597656 7.828125 -22.109375 L 7.828125 -19.015625 L 10.875 -19.015625 C 11.332031 -19.015625 11.710938 -18.863281 12.015625 -18.5625 C 12.328125 -18.257812 12.484375 -17.875 12.484375 -17.40625 C 12.484375 -16.9375 12.328125 -16.554688 12.015625 -16.265625 C 11.710938 -15.972656 11.332031 -15.828125 10.875 -15.828125 Z M 7.828125 -15.828125 "/></g></g></g><g fill="#424e59" fill-opacity="1"><g transform="translate(115.350401, 36.236669)"><g><path d="M 10.984375 -19.6875 C 12.910156 -19.6875 14.515625 -19.378906 15.796875 -18.765625 C 17.085938 -18.148438 17.734375 -17.363281 17.734375 -16.40625 C 17.734375 -16 17.597656 -15.628906 17.328125 -15.296875 C 17.054688 -14.960938 16.710938 -14.796875 16.296875 -14.796875 C 15.984375 -14.796875 15.734375 -14.84375 15.546875 -14.9375 C 15.367188 -15.039062 15.117188 -15.203125 14.796875 -15.421875 C 14.648438 -15.566406 14.414062 -15.738281 14.09375 -15.9375 C 13.800781 -16.082031 13.382812 -16.203125 12.84375 -16.296875 C 12.3125 -16.398438 11.828125 -16.453125 11.390625 -16.453125 C 10.109375 -16.453125 8.976562 -16.15625 8 -15.5625 C 7.019531 -14.976562 6.257812 -14.164062 5.71875 -13.125 C 5.1875 -12.082031 4.921875 -10.925781 4.921875 -9.65625 C 4.921875 -8.363281 5.179688 -7.203125 5.703125 -6.171875 C 6.234375 -5.140625 6.972656 -4.328125 7.921875 -3.734375 C 8.878906 -3.148438 9.972656 -2.859375 11.203125 -2.859375 C 12.472656 -2.859375 13.5 -3.054688 14.28125 -3.453125 C 14.457031 -3.546875 14.691406 -3.703125 14.984375 -3.921875 C 15.222656 -4.117188 15.4375 -4.265625 15.625 -4.359375 C 15.8125 -4.460938 16.035156 -4.515625 16.296875 -4.515625 C 16.785156 -4.515625 17.171875 -4.359375 17.453125 -4.046875 C 17.734375 -3.742188 17.875 -3.347656 17.875 -2.859375 C 17.875 -2.347656 17.550781 -1.84375 16.90625 -1.34375 C 16.257812 -0.84375 15.390625 -0.429688 14.296875 -0.109375 C 13.210938 0.210938 12.046875 0.375 10.796875 0.375 C 8.929688 0.375 7.289062 -0.0546875 5.875 -0.921875 C 4.457031 -1.796875 3.363281 -3 2.59375 -4.53125 C 1.820312 -6.0625 1.4375 -7.769531 1.4375 -9.65625 C 1.4375 -11.539062 1.835938 -13.25 2.640625 -14.78125 C 3.453125 -16.3125 4.578125 -17.507812 6.015625 -18.375 C 7.460938 -19.25 9.117188 -19.6875 10.984375 -19.6875 Z M 10.984375 -19.6875 "/></g></g></g><g fill="#424e59" fill-opacity="1"><g transform="translate(158.165098, 36.236669)"><g><path d="M 12.1875 -19.578125 C 16.5 -19.578125 18.65625 -16.90625 18.65625 -11.5625 L 18.65625 -1.765625 C 18.65625 -1.273438 18.488281 -0.859375 18.15625 -0.515625 C 17.820312 -0.171875 17.398438 0 16.890625 0 C 16.398438 0 15.988281 -0.171875 15.65625 -0.515625 C 15.332031 -0.859375 15.171875 -1.273438 15.171875 -1.765625 L 15.171875 -11.5625 C 15.171875 -14.75 13.820312 -16.34375 11.125 -16.34375 C 9.675781 -16.34375 8.472656 -15.882812 7.515625 -14.96875 C 6.566406 -14.050781 6.09375 -12.914062 6.09375 -11.5625 L 6.09375 -1.765625 C 6.09375 -1.273438 5.925781 -0.859375 5.59375 -0.515625 C 5.269531 -0.171875 4.847656 0 4.328125 0 C 3.816406 0 3.398438 -0.160156 3.078125 -0.484375 C 2.765625 -0.816406 2.609375 -1.242188 2.609375 -1.765625 L 2.609375 -25.40625 C 2.609375 -25.894531 2.769531 -26.3125 3.09375 -26.65625 C 3.425781 -27 3.835938 -27.171875 4.328125 -27.171875 C 4.847656 -27.171875 5.269531 -27 5.59375 -26.65625 C 5.925781 -26.3125 6.09375 -25.894531 6.09375 -25.40625 L 6.09375 -16.125 C 6.707031 -17.070312 7.5625 -17.882812 8.65625 -18.5625 C 9.757812 -19.238281 10.9375 -19.578125 12.1875 -19.578125 Z M 12.1875 -19.578125 "/></g></g></g><g fill="#424e59" fill-opacity="1"><g transform="translate(203.365787, 36.236669)"><g><path d="M 19.5 -10.359375 C 19.476562 -9.910156 19.296875 -9.535156 18.953125 -9.234375 C 18.609375 -8.929688 18.203125 -8.78125 17.734375 -8.78125 L 4.8125 -8.78125 C 4.976562 -6.988281 5.65625 -5.550781 6.84375 -4.46875 C 8.03125 -3.394531 9.484375 -2.859375 11.203125 -2.859375 C 12.378906 -2.859375 13.332031 -3.03125 14.0625 -3.375 C 14.800781 -3.71875 15.453125 -4.160156 16.015625 -4.703125 C 16.378906 -4.921875 16.734375 -5.03125 17.078125 -5.03125 C 17.492188 -5.03125 17.84375 -4.882812 18.125 -4.59375 C 18.40625 -4.300781 18.546875 -3.957031 18.546875 -3.5625 C 18.546875 -3.050781 18.300781 -2.585938 17.8125 -2.171875 C 17.101562 -1.460938 16.160156 -0.859375 14.984375 -0.359375 C 13.804688 0.128906 12.609375 0.375 11.390625 0.375 C 9.398438 0.375 7.648438 -0.0390625 6.140625 -0.875 C 4.640625 -1.707031 3.476562 -2.867188 2.65625 -4.359375 C 1.84375 -5.859375 1.4375 -7.550781 1.4375 -9.4375 C 1.4375 -11.488281 1.859375 -13.289062 2.703125 -14.84375 C 3.546875 -16.40625 4.65625 -17.601562 6.03125 -18.4375 C 7.414062 -19.269531 8.90625 -19.6875 10.5 -19.6875 C 12.070312 -19.6875 13.539062 -19.28125 14.90625 -18.46875 C 16.28125 -17.664062 17.382812 -16.550781 18.21875 -15.125 C 19.050781 -13.707031 19.476562 -12.117188 19.5 -10.359375 Z M 10.5 -16.453125 C 9.132812 -16.453125 7.945312 -16.066406 6.9375 -15.296875 C 5.9375 -14.523438 5.273438 -13.332031 4.953125 -11.71875 L 15.796875 -11.71875 L 15.796875 -12 C 15.671875 -13.300781 15.085938 -14.367188 14.046875 -15.203125 C 13.003906 -16.035156 11.820312 -16.453125 10.5 -16.453125 Z M 10.5 -16.453125 "/></g></g></g><g fill="#424e59" fill-opacity="1"><g transform="translate(248.23609, 36.236669)"><g><path d="M 12.40625 -19.6875 C 16.8125 -19.6875 19.015625 -17.039062 19.015625 -11.75 L 19.015625 -1.765625 C 19.015625 -1.273438 18.847656 -0.859375 18.515625 -0.515625 C 18.191406 -0.171875 17.773438 0 17.265625 0 C 16.773438 0 16.363281 -0.171875 16.03125 -0.515625 C 15.695312 -0.859375 15.53125 -1.273438 15.53125 -1.765625 L 15.53125 -11.71875 C 15.53125 -13.15625 15.195312 -14.300781 14.53125 -15.15625 C 13.875 -16.019531 12.800781 -16.453125 11.3125 -16.453125 C 10.332031 -16.453125 9.441406 -16.238281 8.640625 -15.8125 C 7.847656 -15.382812 7.222656 -14.804688 6.765625 -14.078125 C 6.316406 -13.359375 6.09375 -12.570312 6.09375 -11.71875 L 6.09375 -1.765625 C 6.09375 -1.273438 5.925781 -0.859375 5.59375 -0.515625 C 5.269531 -0.171875 4.847656 0 4.328125 0 C 3.816406 0 3.398438 -0.160156 3.078125 -0.484375 C 2.765625 -0.816406 2.609375 -1.242188 2.609375 -1.765625 L 2.609375 -17.484375 C 2.609375 -17.972656 2.769531 -18.382812 3.09375 -18.71875 C 3.425781 -19.0625 3.835938 -19.234375 4.328125 -19.234375 C 4.847656 -19.234375 5.269531 -19.0625 5.59375 -18.71875 C 5.925781 -18.382812 6.09375 -17.972656 6.09375 -17.484375 L 6.09375 -16.1875 C 6.726562 -17.164062 7.613281 -17.992188 8.75 -18.671875 C 9.894531 -19.347656 11.113281 -19.6875 12.40625 -19.6875 Z M 12.40625 -19.6875 "/></g></g></g></g></g></g></g></svg>