<svg xmlns="http://www.w3.org/2000/svg" xmlns:xlink="http://www.w3.org/1999/xlink" width="50" zoomAndPan="magnify" viewBox="0 0 37.5 37.499999" height="50" preserveAspectRatio="xMidYMid meet" version="1.0"><defs><g/><clipPath id="6fb340b6cc"><path d="M 0 0 L 37.007812 0 L 37.007812 37.007812 L 0 37.007812 Z M 0 0 " clip-rule="nonzero"/></clipPath><clipPath id="6a7fb473d3"><path d="M 3 0 L 33 0 L 33 37.007812 L 3 37.007812 Z M 3 0 " clip-rule="nonzero"/></clipPath><clipPath id="f8349f428a"><rect x="0" width="30" y="0" height="38"/></clipPath></defs><g clip-path="url(#6fb340b6cc)"><path fill="#ffffff" d="M 0 0 L 37.007812 0 L 37.007812 37.007812 L 0 37.007812 Z M 0 0 " fill-opacity="1" fill-rule="nonzero"/><path fill="#ffffff" d="M 0 0 L 37.007812 0 L 37.007812 37.007812 L 0 37.007812 Z M 0 0 " fill-opacity="1" fill-rule="nonzero"/></g><g clip-path="url(#6a7fb473d3)"><g transform="matrix(1, 0, 0, 1, 3, 0)"><g clip-path="url(#f8349f428a)"><g fill="#0f606b" fill-opacity="1"><g transform="translate(0.668258, 28.912779)"><g><path d="M 8.484375 5.625 L 7.015625 3.421875 C 7.085938 3.328125 7.175781 3.210938 7.28125 3.078125 C 7.394531 2.953125 7.625 2.710938 7.96875 2.359375 C 8.3125 2.003906 8.644531 1.691406 8.96875 1.421875 C 9.300781 1.148438 9.679688 0.90625 10.109375 0.6875 C 10.546875 0.46875 10.945312 0.359375 11.3125 0.359375 L 11.3125 0.234375 C 8.144531 -0.378906 5.59375 -1.941406 3.65625 -4.453125 C 1.71875 -6.960938 0.75 -9.953125 0.75 -13.421875 C 0.75 -17.328125 2.046875 -20.617188 4.640625 -23.296875 C 7.242188 -25.972656 10.398438 -27.3125 14.109375 -27.3125 C 17.835938 -27.3125 20.988281 -25.972656 23.5625 -23.296875 C 26.144531 -20.617188 27.4375 -17.328125 27.4375 -13.421875 C 27.4375 -10.242188 26.582031 -7.4375 24.875 -5 C 23.164062 -2.570312 20.910156 -0.9375 18.109375 -0.09375 L 18.109375 0.03125 C 18.242188 0.03125 18.816406 0.132812 19.828125 0.34375 C 20.847656 0.550781 21.660156 0.65625 22.265625 0.65625 C 23.097656 0.65625 23.847656 0.503906 24.515625 0.203125 C 25.191406 -0.0859375 25.660156 -0.375 25.921875 -0.65625 L 26.3125 -1.109375 L 28.21875 3.03125 C 28.175781 3.132812 28.101562 3.265625 28 3.421875 C 27.90625 3.585938 27.6875 3.875 27.34375 4.28125 C 27 4.695312 26.613281 5.066406 26.1875 5.390625 C 25.769531 5.722656 25.207031 6.019531 24.5 6.28125 C 23.789062 6.539062 23.035156 6.671875 22.234375 6.671875 C 20.910156 6.671875 19.296875 6.242188 17.390625 5.390625 C 15.484375 4.546875 13.835938 4.125 12.453125 4.125 C 11.691406 4.125 10.976562 4.25 10.3125 4.5 C 9.65625 4.75 9.1875 5.003906 8.90625 5.265625 Z M 7.34375 -13.421875 C 7.34375 -12.390625 7.460938 -11.421875 7.703125 -10.515625 C 7.941406 -9.617188 8.316406 -8.800781 8.828125 -8.0625 C 9.335938 -7.320312 10.039062 -6.738281 10.9375 -6.3125 C 11.84375 -5.894531 12.898438 -5.6875 14.109375 -5.6875 C 16.390625 -5.6875 18.082031 -6.421875 19.1875 -7.890625 C 20.289062 -9.367188 20.84375 -11.210938 20.84375 -13.421875 C 20.84375 -15.617188 20.273438 -17.457031 19.140625 -18.9375 C 18.015625 -20.425781 16.335938 -21.171875 14.109375 -21.171875 C 11.898438 -21.171875 10.21875 -20.421875 9.0625 -18.921875 C 7.914062 -17.429688 7.34375 -15.597656 7.34375 -13.421875 Z M 7.34375 -13.421875 "/></g></g></g></g></g></g></svg>